<?xml version="1.0" encoding="UTF-8"?>
<svg id="Layer_1" data-name="Layer 1" xmlns="http://www.w3.org/2000/svg" viewBox="0 0 763.7 203.28">
  <defs>
    <style>
      .cls-1 {
        fill: #f5f2ed;
      }

      .cls-2 {
        fill: #00dcea;
        fill-rule: evenodd;
      }
    </style>
  </defs>
  <g id="Layer_1-2" data-name="Layer 1">
    <g id="Layer_11" data-name="Layer 11">
      <path class="cls-2" d="M157.12,88.6c-10.9-.1-19.1-6.1-23.2-16.7-1.6-4.3-2.8-9.1-5.4-12.8-7.3-10.2-17.4-12.8-29.5-10-16.1,3.7-28.4-3.3-32.3-17.7-3.3-12.4,3.3-25,15.4-29.7,12-4.6,25.6.4,31.2,11.7,1.2,2.6,2.1,5.4,3,8.1,4.2,14.1,17.1,21.6,31.6,18.2,18-4.2,31.6,3.7,34.3,19.8,2.6,15.6-9.4,29.4-25.1,29.2h-.1v-.2l.1.1Z"/>
      <path class="cls-2" d="M92.22,123.7c-10.9-.1-19.1-6.1-23.2-16.7-1.6-4.3-2.8-9.1-5.4-12.8-7.3-10.2-17.4-12.8-29.5-10-16.1,3.7-28.4-3.3-32.3-17.7-3.3-12.4,3.3-25,15.4-29.7,12-4.6,25.6.4,31.2,11.7,1.2,2.6,2.1,5.4,3,8.1,4.2,14.1,17.1,21.6,31.6,18.2,18-4.2,31.6,3.7,34.3,19.8,2.6,15.6-9.4,29.4-25.1,29.2h-.1v-.2l.1.1Z"/>
      <path class="cls-2" d="M116.42,175.8c.2,14.1-7.9,24.3-20.4,26.9-11.7,2.6-23.2-3.8-27.8-15.4-.9-2.5-1.5-5-2.6-7.6-4.4-12.4-16.8-19.1-29.7-16.9-5.8.9-12.1,2-17.7.9C6.72,161.3-.48,150.4.02,138.2c.4-11.9,8.7-21.2,20.7-23.5,11.3-2.3,22.6,3.8,27.2,14.3,1,2.5,1.6,5,2.6,7.6,4.3,13.5,17,20.6,30.8,17.5,17.2-3.9,29.5,1.8,33.9,16,.7,2.4.9,4.7,1.1,5.5h.1v.2Z"/>
      <path class="cls-2" d="M157.12,165c-14,0-24.9-11-24.9-25s11.3-25.6,25.5-25.5c13.8.1,25,11.4,25,25.2s-11.3,25.3-25.6,25.2h0v.1Z"/>
    </g>
    <g>
      <path class="cls-1" d="M295.32,123.35c0,8.56-3.26,15.19-9.89,20.08s-15.6,7.34-27.01,7.34-20.49-2.85-27.42-8.46c-6.93-5.61-10.8-13.25-11.72-22.93h8.15c.51,7.54,3.57,13.46,9.07,17.84,5.61,4.38,12.84,6.63,21.92,6.63s16-1.73,20.9-5.1c4.89-3.36,7.34-8.15,7.34-14.37s-1.73-9.58-5.1-12.54c-3.36-2.85-9.28-5.2-17.53-6.73l-12.95-2.45c-9.28-1.83-16.31-4.99-21-9.38-4.79-4.38-7.14-9.99-7.14-16.92s1.43-9.79,4.38-13.76c2.85-3.98,6.93-7.14,12.03-9.38s11.01-3.36,17.74-3.36,13.66,1.22,18.96,3.57c5.4,2.45,9.68,5.91,12.74,10.5,3.16,4.59,4.89,9.99,5.3,16.31h-8.15c-.61-7.44-3.47-13.25-8.66-17.43-5.1-4.18-11.82-6.32-20.08-6.32s-13.86,1.73-18.65,5.3-7.14,8.15-7.14,13.96,1.73,9.48,5.3,12.54,9.38,5.3,17.53,6.93l13.15,2.55c9.79,1.83,16.82,4.79,21.3,8.77s6.63,9.58,6.63,16.61v.2Z"/>
      <path class="cls-1" d="M365.76,140.88v7.64c-2.24.82-4.28,1.43-6.22,1.73s-3.87.51-5.81.51c-4.99,0-9.48-.92-13.56-2.65-4.08-1.83-7.34-4.69-9.79-8.77s-3.67-9.48-3.67-16.31V58.92h-23.95v-7.03h23.95v-28.95h8.66v28.95h31.29v7.03h-31.29v62.48c0,8.15,1.83,13.76,5.61,16.82,3.67,3.06,8.36,4.59,13.86,4.59s3.77-.1,5.5-.41c1.63-.2,3.47-.71,5.5-1.53h-.1Z"/>
      <path class="cls-1" d="M396.23,95.11v53.72h-8.56V51.69h8.15v23.34c3.26-7.54,8.15-13.66,14.78-18.25s13.96-6.93,22.02-6.93v9.07c-6.63-.1-12.74,1.33-18.25,4.49-5.5,3.06-9.89,7.34-13.15,12.84-3.26,5.5-4.89,11.72-4.89,18.86h-.1Z"/>
      <path class="cls-1" d="M461.78,29.16c0,2.34-.82,4.28-2.34,5.81s-3.47,2.34-5.81,2.34-4.28-.82-5.91-2.34c-1.63-1.53-2.45-3.47-2.45-5.81s.82-4.08,2.45-5.5,3.57-2.14,5.91-2.14,4.28.71,5.81,2.14c1.53,1.43,2.34,3.26,2.34,5.5ZM457.9,148.93h-8.56V51.79h8.56v97.14Z"/>
      <path class="cls-1" d="M522.43,150.97c-8.26,0-15.6-2.14-22.02-6.42-6.32-4.28-11.31-10.19-14.88-17.84-3.57-7.64-5.4-16.51-5.4-26.5s1.83-18.55,5.4-26.09c3.57-7.54,8.56-13.46,14.88-17.74,6.32-4.28,13.66-6.42,22.02-6.42s13.76,1.53,19.47,4.59,10.4,7.34,14.27,13.05c3.87,5.71,6.32,12.44,7.64,20.39h-8.56c-1.73-9.79-5.5-17.33-11.21-22.73s-12.84-8.05-21.41-8.05-12.54,1.83-17.63,5.5c-5.1,3.67-9.07,8.66-11.82,15.09-2.85,6.42-4.28,13.86-4.28,22.43s1.43,16.11,4.28,22.73c2.85,6.63,6.83,11.72,11.82,15.39,5.1,3.67,10.91,5.5,17.63,5.5s15.8-2.75,21.61-8.26c5.71-5.5,9.48-13.05,11.21-22.73h8.36c-1.12,7.95-3.57,14.68-7.34,20.39-3.77,5.71-8.56,10.09-14.37,13.15-5.81,3.06-12.33,4.59-19.67,4.59h0Z"/>
      <path class="cls-1" d="M632.72,140.88v7.64c-2.24.82-4.28,1.43-6.22,1.73-1.94.31-3.87.51-5.81.51-4.99,0-9.48-.92-13.56-2.65s-7.34-4.69-9.79-8.77c-2.45-4.08-3.67-9.48-3.67-16.31V58.92h-23.95v-7.03h23.95v-28.95h8.66v28.95h31.29v7.03h-31.29v62.48c0,8.15,1.83,13.76,5.61,16.82,3.67,3.06,8.36,4.59,13.86,4.59s3.77-.1,5.5-.41c1.63-.2,3.47-.71,5.5-1.53h-.1Z"/>
      <path class="cls-1" d="M663.09,148.93h-8.56V15.81h8.56v133.12Z"/>
      <path class="cls-1" d="M763.6,51.79l-50.56,132.92h-9.07l14.27-37.1-38.73-95.82h9.07l34.15,85.11,32.11-85.11h8.87-.1Z"/>
    </g>
  </g>
</svg>