<?xml version="1.0" encoding="UTF-8"?>
<svg id="Layer_1" xmlns="http://www.w3.org/2000/svg" version="1.1" viewBox="0 0 768 227">
  <!-- Generator: Adobe Illustrator 29.0.1, SVG Export Plug-In . SVG Version: 2.1.0 Build 192)  -->
  <defs>
    <style>
      .st0 {
        fill: #00dcea;
        fill-rule: evenodd;
      }

      .st1 {
        fill: #37515f;
      }
    </style>
  </defs>
  <g id="Layer_11" data-name="Layer_1">
    <g id="Layer_11">
      <path class="st0" d="M159.9,99.6c-10.9,0-19.1-6.1-23.2-16.7-1.6-4.3-2.8-9.1-5.4-12.8-7.3-10.2-17.4-12.8-29.5-10-16.1,3.7-28.4-3.3-32.3-17.7-3.3-12.4,3.3-25,15.4-29.7,12-4.6,25.6.4,31.2,11.7,1.2,2.6,2.1,5.4,3,8.1,4.2,14.1,17.1,21.6,31.6,18.2,18-4.2,31.6,3.7,34.3,19.8,2.6,15.6-9.4,29.4-25.1,29.2h-.1v-.2h0Z"/>
      <path class="st0" d="M95,134.7c-10.9-.1-19.1-6.1-23.2-16.7-1.6-4.3-2.8-9.1-5.4-12.8-7.3-10.2-17.4-12.8-29.5-10-16.1,3.7-28.4-3.3-32.3-17.7-3.3-12.4,3.3-25,15.4-29.7,12-4.6,25.6.4,31.2,11.7,1.2,2.6,2.1,5.4,3,8.1,4.2,14.1,17.1,21.6,31.6,18.2,18-4.2,31.6,3.7,34.3,19.8,2.6,15.6-9.4,29.4-25.1,29.2h0v-.2h0Z"/>
      <path class="st0" d="M119.2,186.8c.2,14.1-7.9,24.3-20.4,26.9-11.7,2.6-23.2-3.8-27.8-15.4-.9-2.5-1.5-5-2.6-7.6-4.4-12.4-16.8-19.1-29.7-16.9-5.8.9-12.1,2-17.7.9-11.5-2.4-18.7-13.3-18.2-25.5.4-11.9,8.7-21.2,20.7-23.5,11.3-2.3,22.6,3.8,27.2,14.3,1,2.5,1.6,5,2.6,7.6,4.3,13.5,17,20.6,30.8,17.5,17.2-3.9,29.5,1.8,33.9,16,.7,2.4.9,4.7,1.1,5.5h0v.2Z"/>
      <path class="st0" d="M159.9,176c-14,0-24.9-11-24.9-25s11.3-25.6,25.5-25.5c13.8.1,25,11.4,25,25.2s-11.3,25.3-25.6,25.2h0Z"/>
    </g>
    <g>
      <path class="st1" d="M298.1,134.3c0,8.6-3.3,15.2-9.9,20.1s-15.6,7.3-27,7.3-20.5-2.9-27.4-8.5c-6.9-5.6-10.8-13.3-11.7-22.9h8.2c.5,7.5,3.6,13.5,9.1,17.8,5.6,4.4,12.8,6.6,21.9,6.6s16-1.7,20.9-5.1c4.9-3.4,7.3-8.2,7.3-14.4s-1.7-9.6-5.1-12.5c-3.4-2.9-9.3-5.2-17.5-6.7l-12.9-2.4c-9.3-1.8-16.3-5-21-9.4-4.8-4.4-7.1-10-7.1-16.9s1.4-9.8,4.4-13.8c2.9-4,6.9-7.1,12-9.4s11-3.4,17.7-3.4,13.7,1.2,19,3.6c5.4,2.4,9.7,5.9,12.7,10.5,3.2,4.6,4.9,10,5.3,16.3h-8.2c-.6-7.4-3.5-13.3-8.7-17.4-5.1-4.2-11.8-6.3-20.1-6.3s-13.9,1.7-18.7,5.3-7.1,8.2-7.1,14,1.7,9.5,5.3,12.5,9.4,5.3,17.5,6.9l13.1,2.5c9.8,1.8,16.8,4.8,21.3,8.8s6.6,9.6,6.6,16.6v.2Z"/>
      <path class="st1" d="M368.5,151.8v7.6c-2.2.8-4.3,1.4-6.2,1.7s-3.9.5-5.8.5c-5,0-9.5-.9-13.6-2.7-4.1-1.8-7.3-4.7-9.8-8.8s-3.7-9.5-3.7-16.3v-64.1h-24v-7h24v-28.9h8.7v28.9h31.3v7h-31.3v62.5c0,8.2,1.8,13.8,5.6,16.8,3.7,3.1,8.4,4.6,13.9,4.6s3.8-.1,5.5-.4c1.6-.2,3.5-.7,5.5-1.5h-.1Z"/>
      <path class="st1" d="M399,106.1v53.7h-8.6V62.6h8.2v23.3c3.3-7.5,8.2-13.7,14.8-18.2s14-6.9,22-6.9v9.1c-6.6-.1-12.7,1.3-18.2,4.5-5.5,3.1-9.9,7.3-13.1,12.8-3.3,5.5-4.9,11.7-4.9,18.9h-.1Z"/>
      <path class="st1" d="M464.6,40.1c0,2.3-.8,4.3-2.3,5.8s-3.5,2.3-5.8,2.3-4.3-.8-5.9-2.3c-1.6-1.5-2.4-3.5-2.4-5.8s.8-4.1,2.4-5.5,3.6-2.1,5.9-2.1,4.3.7,5.8,2.1c1.5,1.4,2.3,3.3,2.3,5.5ZM460.7,159.9h-8.6V62.8h8.6v97.1Z"/>
      <path class="st1" d="M525.2,161.9c-8.3,0-15.6-2.1-22-6.4-6.3-4.3-11.3-10.2-14.9-17.8-3.6-7.6-5.4-16.5-5.4-26.5s1.8-18.6,5.4-26.1c3.6-7.5,8.6-13.5,14.9-17.7,6.3-4.3,13.7-6.4,22-6.4s13.8,1.5,19.5,4.6,10.4,7.3,14.3,13c3.9,5.7,6.3,12.4,7.6,20.4h-8.6c-1.7-9.8-5.5-17.3-11.2-22.7s-12.8-8.1-21.4-8.1-12.5,1.8-17.6,5.5c-5.1,3.7-9.1,8.7-11.8,15.1-2.9,6.4-4.3,13.9-4.3,22.4s1.4,16.1,4.3,22.7c2.9,6.6,6.8,11.7,11.8,15.4,5.1,3.7,10.9,5.5,17.6,5.5s15.8-2.8,21.6-8.3c5.7-5.5,9.5-13,11.2-22.7h8.4c-1.1,8-3.6,14.7-7.3,20.4-3.8,5.7-8.6,10.1-14.4,13.1-5.8,3.1-12.3,4.6-19.7,4.6h0Z"/>
      <path class="st1" d="M635.5,151.8v7.6c-2.2.8-4.3,1.4-6.2,1.7-1.9.3-3.9.5-5.8.5-5,0-9.5-.9-13.6-2.7s-7.3-4.7-9.8-8.8c-2.4-4.1-3.7-9.5-3.7-16.3v-64.1h-24v-7h24v-28.9h8.7v28.9h31.3v7h-31.3v62.5c0,8.2,1.8,13.8,5.6,16.8,3.7,3.1,8.4,4.6,13.9,4.6s3.8-.1,5.5-.4c1.6-.2,3.5-.7,5.5-1.5h-.1Z"/>
      <path class="st1" d="M665.9,159.9h-8.6V26.8h8.6v133.1Z"/>
      <path class="st1" d="M766.4,62.8l-50.6,132.9h-9.1l14.3-37.1-38.7-95.8h9.1l34.1,85.1,32.1-85.1h8.9-.1Z"/>
    </g>
  </g>
</svg>